{"asset":{"version":"2.0"},"scenes":[{"nodes":[0]}],"nodes":[{"name":"::rootNode::","children":[1,2,3,4,5,6,7,8,9,10,11]},{"name":"Element Cameras <704925 {3D}>","extras":{"UniqueId":"174e04dd-2ffe-4c62-8958-5f48ada975f5-000ac19d","Properties":{"Element Category":"Cameras","View Name":"{3D}","Dependency":"Independent","View Scale":" 1 : 100","Scale Value    1:":"100","Detail Level":"Fine","Crop View":"No","Crop Region Visible":"No","Far Clip Active":"No","Far Clip Offset":"304800","Scope Box":"None","Discipline":"Coordination","Show Hidden Lines":"By Discipline","Locked Orientation":"No","Projection Mode":"Orthographic","Eye Elevation":"877","Target Elevation":"375","Camera Position":"Adjusting","Section Box":"No","None":"-1","Type New views are dependent on template":"Yes","Type Coarse Poche Material":"土層"}}},{"name":"Extrusion <704942 Extrusion>","mesh":0,"extras":{"UniqueId":"174e04dd-2ffe-4c62-8958-5f48ada975f5-000ac1ae","Properties":{"Extrusion End":"2","Extrusion Start":"0","Visible":"Yes","Work Plane":"Reference Lines","Subcategory":"<None>","Material":"<By Category>","Solid/Void":"Solid"}}},{"name":"Extrusion <704954 Extrusion>","mesh":1,"extras":{"UniqueId":"174e04dd-2ffe-4c62-8958-5f48ada975f5-000ac1ba","Properties":{"Extrusion End":"2","Extrusion Start":"0","Visible":"Yes","Work Plane":"<not associated>","Subcategory":"<None>","Material":"<By Category>","Solid/Void":"Solid"}}},{"name":"Extrusion <704966 Extrusion>","mesh":2,"extras":{"UniqueId":"174e04dd-2ffe-4c62-8958-5f48ada975f5-000ac1c6","Properties":{"Extrusion End":"605","Extrusion Start":"-675","Visible":"Yes","Work Plane":"Reference Plane : 中心 (左/右)","Subcategory":"<None>","Material":"<By Category>","Solid/Void":"Solid"}}},{"name":"Extrusion <704973 Extrusion>","mesh":3,"extras":{"UniqueId":"174e04dd-2ffe-4c62-8958-5f48ada975f5-000ac1cd","Properties":{"Extrusion End":"675","Extrusion Start":"-675","Visible":"Yes","Work Plane":"Reference Plane : 中心 (左/右)","Subcategory":"<None>","Material":"<By Category>","Solid/Void":"Solid"}}},{"name":"Extrusion <704982 Extrusion>","mesh":4,"extras":{"UniqueId":"174e04dd-2ffe-4c62-8958-5f48ada975f5-000ac1d6","Properties":{"Extrusion End":"-59","Extrusion Start":"0","Visible":"Yes","Work Plane":"Level : 參考樓層","Subcategory":"<None>","Material":"<By Category>","Solid/Void":"Solid"}}},{"name":"Sweep <704985 Sweep>","extras":{"UniqueId":"174e04dd-2ffe-4c62-8958-5f48ada975f5-000ac1d9","Properties":{"Visible":"Yes","Work Plane":"Reference Plane","Subcategory":"<None>","Material":"<By Category>","Trajectory Segmentation":"No","Maximum Segment Angle":"360.00°"}}},{"name":"Sweep <705002 Sweep>","extras":{"UniqueId":"174e04dd-2ffe-4c62-8958-5f48ada975f5-000ac1ea","Properties":{"Visible":"Yes","Work Plane":"Reference Plane","Subcategory":"<None>","Material":"<By Category>","Trajectory Segmentation":"No","Maximum Segment Angle":"360.00°"}}},{"name":"GeomCombination <705014 Joined Solid Geometry>","mesh":5,"extras":{"UniqueId":"174e04dd-2ffe-4c62-8958-5f48ada975f5-000ac1f6","Properties":{"Subcategory":"<None>","Material":"<By Category>","Visible":"Yes"}}},{"name":"Sweep <705015 Sweep>","mesh":6,"extras":{"UniqueId":"174e04dd-2ffe-4c62-8958-5f48ada975f5-000ac1f7","Properties":{"Visible":"Yes","Work Plane":"Reference Plane","Subcategory":"<None>","Material":"<By Category>","Solid/Void":"Solid","Trajectory Segmentation":"No","Maximum Segment Angle":"360.00°"}}},{"name":"Sweep <705027 Sweep>","mesh":7,"extras":{"UniqueId":"174e04dd-2ffe-4c62-8958-5f48ada975f5-000ac203","Properties":{"Visible":"Yes","Work Plane":"Reference Plane","Subcategory":"<None>","Material":"<By Category>","Solid/Void":"Solid","Trajectory Segmentation":"No","Maximum Segment Angle":"360.00°"}}}],"meshes":[{"primitives":[{"attributes":{"POSITION":0},"indices":1,"material":0,"mode":4}]},{"primitives":[{"attributes":{"POSITION":2},"indices":3,"material":0,"mode":4}]},{"primitives":[{"attributes":{"POSITION":4},"indices":5,"material":0,"mode":4}]},{"primitives":[{"attributes":{"POSITION":6},"indices":7,"material":0,"mode":4}]},{"primitives":[{"attributes":{"POSITION":8},"indices":9,"material":0,"mode":4}]},{"primitives":[{"attributes":{"POSITION":10},"indices":11,"material":0,"mode":4}]},{"primitives":[{"attributes":{"POSITION":12},"indices":13,"material":0,"mode":4}]},{"primitives":[{"attributes":{"POSITION":14},"indices":15,"material":0,"mode":4}]}],"buffers":[{"uri":"乾盤管.bin","byteLength":19968}],"bufferViews":[{"buffer":0,"byteOffset":0,"byteLength":96,"target":34962},{"buffer":0,"byteOffset":96,"byteLength":144,"target":34963},{"buffer":0,"byteOffset":240,"byteLength":96,"target":34962},{"buffer":0,"byteOffset":336,"byteLength":144,"target":34963},{"buffer":0,"byteOffset":480,"byteLength":96,"target":34962},{"buffer":0,"byteOffset":576,"byteLength":144,"target":34963},{"buffer":0,"byteOffset":720,"byteLength":144,"target":34962},{"buffer":0,"byteOffset":864,"byteLength":240,"target":34963},{"buffer":0,"byteOffset":1104,"byteLength":576,"target":34962},{"buffer":0,"byteOffset":1680,"byteLength":1104,"target":34963},{"buffer":0,"byteOffset":2784,"byteLength":2544,"target":34962},{"buffer":0,"byteOffset":5328,"byteLength":4944,"target":34963},{"buffer":0,"byteOffset":10272,"byteLength":2724,"target":34962},{"buffer":0,"byteOffset":12996,"byteLength":5292,"target":34963},{"buffer":0,"byteOffset":18288,"byteLength":576,"target":34962},{"buffer":0,"byteOffset":18864,"byteLength":1104,"target":34963}],"accessors":[{"bufferView":0,"byteOffset":0,"componentType":5126,"count":8,"type":"VEC3","max":[675.0,-75.0,1020.0],"min":[-675.0,-77.0,0.0]},{"bufferView":1,"byteOffset":0,"componentType":5125,"count":36,"type":"SCALAR","max":[7.0],"min":[0.0]},{"bufferView":2,"byteOffset":0,"componentType":5126,"count":8,"type":"VEC3","max":[605.0,77.0,1020.0],"min":[-675.0,75.0,0.0]},{"bufferView":3,"byteOffset":0,"componentType":5125,"count":36,"type":"SCALAR","max":[7.0],"min":[0.0]},{"bufferView":4,"byteOffset":0,"componentType":5126,"count":8,"type":"VEC3","max":[605.0,75.0,1020.0],"min":[-675.0,-75.0,0.0]},{"bufferView":5,"byteOffset":0,"componentType":5125,"count":36,"type":"SCALAR","max":[7.0],"min":[0.0]},{"bufferView":6,"byteOffset":0,"componentType":5126,"count":12,"type":"VEC3","max":[675.0,102.0,25.0],"min":[-675.0,-77.0,-2.0]},{"bufferView":7,"byteOffset":0,"componentType":5125,"count":60,"type":"SCALAR","max":[11.0],"min":[0.0]},{"bufferView":8,"byteOffset":0,"componentType":5126,"count":48,"type":"VEC3","max":[675.0,99.0,0.0],"min":[641.0,65.0,-59.0]},{"bufferView":9,"byteOffset":0,"componentType":5125,"count":276,"type":"SCALAR","max":[47.0],"min":[0.0]},{"bufferView":10,"byteOffset":0,"componentType":5126,"count":212,"type":"VEC3","max":[667.0,166.0,997.0],"min":[605.0,-69.0,563.0]},{"bufferView":11,"byteOffset":0,"componentType":5125,"count":1236,"type":"SCALAR","max":[211.0],"min":[0.0]},{"bufferView":12,"byteOffset":0,"componentType":5126,"count":227,"type":"VEC3","max":[667.0,166.0,852.0],"min":[624.0,29.0,51.0]},{"bufferView":13,"byteOffset":0,"componentType":5125,"count":1323,"type":"SCALAR","max":[226.0],"min":[0.0]},{"bufferView":14,"byteOffset":0,"componentType":5126,"count":48,"type":"VEC3","max":[658.0,66.0,67.0],"min":[605.0,34.0,35.0]},{"bufferView":15,"byteOffset":0,"componentType":5125,"count":276,"type":"SCALAR","max":[47.0],"min":[0.0]}],"materials":[{"name":"MaterialNode_8355711_0","pbrMetallicRoughness":{"baseColorFactor":[0.498039216,0.498039216,0.498039216,1.0],"metallicFactor":0.0,"roughnessFactor":1.0}}]}